<svg xmlns="http://www.w3.org/2000/svg" width="100%" height="100%" class="icon" viewBox="0 0 1024 1024">
  <title>dog</title>
  <path fill="#85C3DE" d="m894.814 904.435 83.24-183.135-13.823-13.204c-.485-.458-45.65-47.59-47.94-185.263-.134-7.923-.134-33.954-.134-55.997-30.693 15.306-70.09 19.887-106.092 19.887-92.753 0-163.625-23.983-210.648-71.275a192.512 192.512 0 0 1-27.944-36.514h-194.21v377.263c342.663 0 403.106 51.092 494.592 128.377 7.923 6.683 15.522 13.312 22.96 19.86z"/>
  <path fill="#231F20" d="M326.063 282.947c0 34.25-13.231 44.464-29.642 44.464s-29.642-10.214-29.642-44.464c0-34.223 13.231-44.463 29.642-44.463s29.642 10.24 29.642 44.463zm-56.59 147.349v311.646L190.276 916.21h59.204l73.89-162.574V377.263H296.42c-119.404 0-172.733-53.383-185.506-107.79h35.625c51.092 0 68.58-15.764 120.535-62.544 12.773-11.507 28.08-25.277 47.024-41.742l18.35-15.952-69.658-99.14-44.086 30.99 41.768 59.472c-11.183 9.863-20.884 18.594-29.48 26.328-50.257 45.272-54.757 48.694-84.453 48.694H53.895v26.947c0 88.711 66.91 178.15 215.579 187.77zM486.185 268.88c2.29 71.734 28.7 136.327 75.049 182.919 57.479 57.829 141.204 87.147 248.859 87.147 18.593 0 36.19-1.158 52.628-3.449 3.746 111.266 33.63 170.334 51.496 196.015l-38.507 84.723c-93.535-74.186-186.934-115.604-498.446-115.604v53.894c34.277 0 65.698.512 94.64 1.51l-97.308 214.07H433.8l96.013-211.241c66.183 4.338 117.006 11.83 157.912 22.016L626.23 916.21h59.176l54.165-119.135c47.616 18.405 79.737 42.092 113.125 69.74l-46.943 103.29h59.204l113.07-248.779-13.823-13.204c-.485-.458-45.65-47.59-47.94-185.263C985.17 498.553 1024 447.81 1024 377.263c0-95.205-66.506-161.684-161.684-161.684v53.895c65.482 0 107.79 42.307 107.79 107.79 0 89.087-87.014 107.789-160.014 107.789-92.753 0-163.625-23.984-210.648-71.276-30.316-30.505-45.891-65.833-53.356-98.735 11.21 6.952 22.933 13.339 35.275 19.186l23.04-48.72C512.296 241.852 455.41 156.86 385.159 41.525l-46.026 28.052c49.448 81.246 92.968 148.507 147.051 199.303z"/>
</svg>