<svg xmlns="http://www.w3.org/2000/svg" width="100%" height="100%" class="icon" viewBox="0 0 1024 1024">
  <title>dragon</title>
  <path fill="#FF8787" d="m366.376 344.441 152.98-152.98c43.143-43.143 141.205-9.216 270.202 115.739-15.225 9.836-25.115 15.818-44.14 32.256s-38.077 35.49-59.419 56.832c-4.204 4.204-51.173 53.221-78.74 82.028-10.806-12.127-22.744-24.172-34.654-36.083l-79.468-79.44-54.218 54.218-72.543-72.57zM862.316 512c0 46.835-45.353 80.842-107.79 80.842-108.948 0-189.359-28.807-267.129-56.697-73.297-26.274-142.525-51.092-229.214-51.092C80.788 485.053 0 588.126 0 683.897h53.895c19.321-24.118 81.408-37.16 123.446-37.16 77.339 0 223.124 23.282 291.894 47.912 78.228 28.052 146.755 59.877 265.08 59.877 128 0 181.896-84.21 181.896-242.526h-53.895z"/>
  <path fill="#231F20" d="M552.421 1024c-69.767 0-113.826-13.959-156.402-27.46-54.488-17.273-110.808-35.004-232.422-26.516l-3.826-53.733c131.719-9.458 195.934 10.968 252.524 28.888 42.226 13.366 78.686 24.926 140.126 24.926 92.753 0 148.21-57.937 148.21-113.96 0-16.95-5.524-101.619-114.634-101.619-64.97 0-112.747 23.337-163.328 48.02-57.344 28.026-122.368 59.77-218.381 59.77C85.908 862.316 0 787.294 0 683.897c0-95.77 80.788-198.844 258.183-198.844 86.69 0 155.917 24.818 229.214 51.092 45.81 16.41 92.564 33.172 145.489 44.167 9-7.034 13.85-16.277 13.85-26.76 0-37.187-37.672-74.859-74.131-111.265L569.317 439l38.104-38.104 3.26 3.288c42.173 42.091 89.95 89.842 89.95 149.369 0 12.719-2.802 24.926-7.976 36.11a594.998 594.998 0 0 0 61.871 3.18c62.437 0 107.79-34.008 107.79-80.843 0-58.853-52.87-110.269-108.84-164.702l-8.058-7.842c-19.025 16.438-38.077 35.49-59.419 56.832l-38.103-38.104C722.7 283.352 782.794 223.286 916.21 216.253V55.619c-63.408 7.788-120.994 39.424-121.668 39.802l-15.818 8.811-14.12-11.344c-32.903-26.436-54.892-38.993-90.92-38.993-41.419 0-74.349 25.87-109.192 53.302-26.624 20.91-54.137 42.55-86.85 53.194l-8.3 1.293h-69.094L294.723 267.21l-38.103-38.13 67.395-67.396h-162.33V107.79h303.103c22.232-8.272 43.709-25.168 66.399-42.98C569.829 34.438 613.619 0 673.684 0c48.91 0 81.408 17.947 110.889 40.098C813.703 26.3 877.73 0 943.158 0h26.947v323.368h-53.894v-53.167c-54.165 3.1-92.915 15.845-127.003 36.676l1.832 1.778C852.588 368.505 916.21 430.376 916.21 512c0 60.928-43.708 109.945-107.789 127.623v61.009h53.895v-53.895h53.895v53.895h53.894v53.894h-53.894v53.895h-53.895v-53.895H808.42c-29.723 0-53.895-24.171-53.895-53.894v-53.895c-118.326 0-207.063-31.798-285.318-59.877-68.77-24.63-133.713-47.913-211.025-47.913-141.124 0-204.288 72.785-204.288 144.95 0 73.324 61.844 124.524 150.393 124.524 11.91 0 23.229-.539 34.035-1.536 10.132-10.563 31.15-36.244 31.15-67.719 0-33.118-43.088-70.98-58.152-81.596l30.936-44.14c8.3 5.794 81.111 58.664 81.111 125.736 0 19.43-4.527 37.053-10.994 52.305 30.774-10.051 58.314-23.498 86.663-37.349 53.84-26.274 109.54-53.49 186.96-53.49 116.413 0 168.53 78.093 168.53 155.513 0 82.513-75.615 167.855-202.106 167.855zm-21.18-623.104-38.104-38.104 137.89-137.89 38.103 38.104-137.89 137.89zM404.48 382.545l-38.104-38.104 152.98-152.98 38.104 38.104-152.98 152.98zM686.484 163.92c15.495-9.755 43.332-31.448 43.332-31.448-25.735-27.81-49.557-33.334-67.369-29.076-19.24 4.608-37.753 24.603-37.753 24.603s42.253 22.447 61.79 35.92z"/>
</svg>