<svg xmlns="http://www.w3.org/2000/svg" width="100%" height="100%" class="icon" viewBox="0 0 1024 1024">
  <title>goat</title>
  <path fill="#F7C768" d="M548.379 646.737a952.32 952.32 0 0 1 140.908-161.684H107.789c0 107.6 0 107.6-63.65 169.283L31.07 667.001l35.652 87.525h417.172c20.345-41.472 43.655-77.446 64.485-107.79z"/>
  <path fill="#231F20" d="M608.256 144.734c-52.493-29.157-102.157-36.945-123.203-36.945V53.895c32.579 0 91.27 11.452 149.369 43.735 75.29 41.823 130.695 94.532 171.385 150.879-49.933 39.504-108.706 74.86-159.07 74.86h-107.79v-53.895h107.79c20.507 0 48.424-11.21 80.438-31.286a471.04 471.04 0 0 0-118.919-93.454zm224.418 197.498c-16.384 0-29.642 10.24-29.642 44.463 0 34.25 13.23 44.463 29.642 44.463s29.642-10.213 29.642-44.463c0-34.223-13.231-44.463-29.642-44.463zM1024 619.789c0-272.68-122.934-497.34-337.246-616.394L660.588 50.5c253.736 140.962 304.1 389.902 309.06 542.343H885.14c-17.92-35.624-45.352-69.12-87.013-101.996l-16.788-13.285-16.734 13.393c-66.13 52.898-134.63 127.084-187.312 209.678H102.966l-8.273-20.319c64.35-63.3 66.991-77.204 66.991-195.26v-53.895h485.053v-53.895H161.684c0-80.384 14.31-110.026 66.587-137.916l-25.384-47.536c-79.522 42.416-95.098 100.11-95.098 185.452v107.79c0 107.6 0 107.6-63.65 169.283L31.07 667.001l79.549 195.315h58.206l-43.897-107.79h103.478l43.897 107.79h58.206l-43.897-107.79h259.476c-37.106 70.414-61.035 144.627-61.035 215.58h53.894c0-68.69 27.271-144.061 68.959-215.58h79.252c7.41 0 13.474 6.063 13.474 13.474v94.316h53.894V768c0-37.16-30.208-67.368-67.368-67.368h-44.652c40.771-58.018 89.438-111.428 138.914-153.627 60.092 53.032 80.896 108.22 80.896 207.521h53.895c0-38.912-2.75-74.482-11.103-107.79H1024V619.79z"/>
</svg>