<svg xmlns="http://www.w3.org/2000/svg" width="100%" height="100%" class="icon" viewBox="0 0 1024 1024">
  <title>horse</title>
  <path fill="#FFAF6E" d="M776.003 646.737c16.6-99.948 43.44-181.086 83.214-256.54l6.818-12.934H269.474c-36.757 0-53.895 54.946-53.895 92.052 0 46.754 6.656 77.528 70.279 176.074l84.534 128.27 128.485-126.922h277.126z"/>
  <path fill="#231F20" d="M1024 0v404.21c0 33.334 0 134.737-92.08 134.737h-13.823l-78.363-109.056c-22.744 49.907-40.34 103.047-53.49 162.951h115.092c35.974 0 68.77 32.795 68.77 68.797 0 60.631-69.39 154.3-77.313 164.756l-43.008-32.472c25.681-34.061 66.426-100.11 66.426-132.284 0-5.983-8.92-14.902-14.902-14.902H775.976c-14.848 89.384-21.45 193.832-21.45 323.368h-53.894c0-283.971 31.097-453.605 110.888-605.049l20.318-38.535L944.64 483.517c14.444-4.42 25.465-20.938 25.465-79.306V0H1024zM862.316 161.684h53.895V0h-53.895v80.842c-17.381-14.956-38.185-26.947-80.842-26.947H646.737v53.894h134.737c37.672 0 80.842 40.907 80.842 53.895zm-107.79 0H538.947v53.895h161.685l53.894-53.895zm-453.632 604.86 99.786 149.667h64.755l-95.043-142.552 128.485-126.922h167.855a1212.632 1212.632 0 0 1 9.431-53.895H476.78L300.894 766.545zm109.973-184.4-37.862-38.32-132.419 130.803c-66.856-103.531-78.902-144.815-78.902-205.312 0-70.736 37.78-145.947 107.79-145.947h323.368l53.895-53.894H269.474c-6.71 0-13.258.566-19.699 1.482-14.848-21.504-45.137-55.377-89.142-55.377C65.967 215.579 0 349.292 0 469.315c0 70.171 16.141 136.65 49.233 202.672L6.198 723.833l41.472 34.412 66.129-79.737-8.704-16.034c-21.99-40.34-51.2-104.26-51.2-193.159 0-100.864 52.87-199.841 106.738-199.841 13.231 0 25.816 9.89 35.436 20.534-53.194 31.96-88.28 98.492-88.28 179.307 0 78.202 19.699 130.938 93.643 243.982l-55.296 54.622 134.763 202.186h64.755L215.606 775.033l195.26-192.889z"/>
</svg>