<svg xmlns="http://www.w3.org/2000/svg" width="100%" height="100%" class="icon" viewBox="0 0 1024 1024">
  <title>monkey</title>
  <path fill="#C3D686" d="M757.733 485.053H565.895a80.842 80.842 0 0 0-80.842 80.842v215.579c0 40.96 43.547 99.678 77.446 139.21 33.927 39.532 40.556 49.421 40.556 49.421h151.471s15.145-18.674 45.892-58.071 61.898-102.05 61.898-194.426c0-89.573-47.993-166.346-104.583-232.555z"/>
  <path fill="#231F20" d="M538.947 1024h-53.894c0-32.795 25.87-87.417 77.446-103.316-33.9-39.532-77.446-98.25-77.446-139.21 0-44.571 36.27-80.842 80.842-80.842h80.842v53.894h-80.842a26.947 26.947 0 0 0-26.948 26.948c0 19.725 36.676 77.473 92.133 134.737h88.603c20.21-14.148 88.738-71.465 88.738-198.603 0-108.382-93.238-202.967-168.152-278.986-49.502-50.203-88.576-89.842-98.735-128.62-11.749-44.732-21.585-112.586-26.327-148.318H377.263c-45.137 0-89.519 8.435-121.802 53.895h175.697v53.895c-97.28 0-107.79 113.07-107.79 161.684v53.895h53.895v161.684h-53.895v-107.79h-26.947c-170.253 0-188.632-94.235-188.632-134.736 0-31.044 35.22-72.327 55.728-93.723 2.694-14.687 5.847-28.35 9.431-41.014h-11.264v-53.895h31.529c46.43-94.585 124.011-107.79 184.05-107.79h185.64l2.803 23.795c.135 1.05 12.72 106.658 27.945 164.756 6.494 24.873 44.624 63.515 84.965 104.448 81.866 83.025 183.7 186.341 183.7 316.82 0 92.376-31.124 155.029-61.898 194.426 104.502-19.887 169.687-109.03 169.687-238.35 0-91.405-42.82-154.381-84.237-215.255-38.077-55.97-77.447-113.853-77.447-188.955 0-119.35 87.094-161.685 161.684-161.685v53.895c-32.417 0-107.79 10.51-107.79 107.79 0 58.502 31.556 104.933 68.097 158.639C974.282 492.598 1024 565.679 1024 673.684c0 177.287-108.301 296.421-269.474 296.421H592.842c-37.672 0-53.895 40.906-53.895 53.895zM229.214 269.474a384.808 384.808 0 0 0-14.012 58.34l-1.402 8.49-6.09 6.116c-22.878 22.932-44.813 52.601-46.026 62.276 0 56.805 53.76 75.264 107.79 79.387v-52.925c0-58.691 13.473-119.62 46.51-161.684h-86.77zM323.368 1024h-53.894c0-32.795 25.87-87.417 77.446-103.316-33.9-39.532-77.446-98.25-77.446-139.21 0-44.571 36.27-80.842 80.842-80.842h45.164a188.847 188.847 0 0 1 170.415-107.79h134.737v53.895H565.895c-74.294 0-134.737 60.443-134.737 134.737v26.516l-53.895.377v-26.893c0-9.162.647-18.136 1.913-26.948h-28.86c-14.848 0-26.948 12.073-26.948 26.948 0 19.725 36.676 77.473 92.133 134.737h15.657v53.894h-53.895c-37.672 0-53.895 40.906-53.895 53.895z"/>
</svg>