<svg xmlns="http://www.w3.org/2000/svg" width="100%" height="100%" class="icon" viewBox="0 -0.5 1025 1025">
  <title>ox</title>
  <path fill="#FFAF6E" d="M540.295 754.526h215.579c20.21 0 35.112 1.375 53.894 4.581 91.864 15.657 145.355 67.692 161.685 86.07v71.034h53.894V635.58l-7.895-7.896c-9.27-9.27-36.514-49.233-44.032-196.527H540.295A161.684 161.684 0 0 0 378.61 592.842v131.1c43.304 20.21 97.28 30.584 161.684 30.584z"/>
  <path fill="#231F20" d="M1025.347 635.58v280.63h-53.894v-71.033c-16.33-18.405-69.821-70.413-161.685-86.07v157.104h-53.894V754.526h-107.79v215.58H594.19V700.631h161.685c100.998 0 172.57 38.67 215.579 71.868V656.761c-33.685-43.628-51.712-137.458-53.706-279.498H701.979c-76.935 0-127.219-26.22-175.805-51.55a1556.049 1556.049 0 0 0-26.84-13.743c-26.839 26.004-66.209 44.92-115.738 55.511 24.441 22.986 60.874 52.116 106.469 72.839l-22.313 49.044c-76.584-34.816-129.59-88.926-150.824-113.125-10.644.62-21.477 1.024-32.687 1.024a473.735 473.735 0 0 1-123.365-15.953L67.853 547.624l68.582 53.868c31.447-21.935 101.456-62.545 188.28-62.545v53.895c-95.986 0-170.36 62.491-171.088 63.138l-16.788 14.282L0 562.904l109.73-219.81C46.43 314.449 1.347 267.372 1.347 199.869c0-110.053 120.24-145.974 161.685-145.974v53.894c-14.12 0-107.79 17.166-107.79 92.08 0 90.597 136.947 123.5 228.999 123.5 67.907 0 122.422-12.99 157.696-35.625-42.712-14.336-95.097-23.12-169.337-18.324l-3.504-53.787c95.88-6.117 160.149 8.515 211.43 28.834 3.718-9.028 5.874-18.648 5.874-28.888 0-48.856-57.83-76.288-58.395-76.558l22.393-49.017c3.665 1.644 89.897 41.823 89.897 125.575 0 18.567-3.423 35.84-9.998 51.631 7.06 3.584 13.986 7.168 20.777 10.698 46.78 24.415 87.174 45.46 150.905 45.46h269.474v26.948c0 214.69 35.22 266.59 45.999 277.37l7.895 7.895zm-729.384 25.143-98.79 118.541L283.972 917.1l45.595-28.726-65.913-104.69 37.053-44.437c57.937 45.945 138.374 69.174 239.589 69.174v-53.895c-99.894 0-175.077-24.549-223.475-72.946l-20.857-20.857z"/>
</svg>