<svg xmlns="http://www.w3.org/2000/svg" width="100%" height="100%" class="icon" viewBox="0 0 1024 1024">
  <title>pig</title>
  <path fill="#FFBDD8" d="M732.08 377.263c-107.79 0-186.423 31.394-281.87 126.841L180.332 773.982c77.393 33.927 168.394 34.44 304.72 34.44h96.014c55.835-34.413 133.551-53.896 227.355-53.896h121.344l40.34-73.97V572.632c0-94.316-130.236-195.369-238.026-195.369z"/>
  <path fill="#231F20" d="M808.421 700.632v53.894c-196.446 0-323.368 84.642-323.368 215.58h-53.895c0-163.706 148.076-269.474 377.263-269.474zm-323.368 107.79v-53.896c-158.343 0-245.599 0-319.65-49.367l-6.79-4.527h-77.77c-21.694 0-26.625-14.821-26.948-26.948v-82.62C138.05 579.88 215.579 516.15 215.579 404.21V215.579h-53.895v161.684h-26.947C67.773 377.263 0 414.29 0 485.053h53.895c0-42.631 52.87-53.895 80.842-53.895h24.63c-12.234 73.755-74.213 107.79-132.42 107.79H0v134.736c0 32.499 21.53 80.842 80.842 80.842h61.683c32.687 20.507 67.126 33.146 105.957 41.014a232.88 232.88 0 0 0-32.903 120.67h53.895c0-41.93 14.012-80.303 39.424-112.505 49.987 4.447 107.062 4.716 176.155 4.716zM412.106 466l-88.738 88.738V431.158h-53.894V684.84L450.21 504.104l-38.104-38.103zm-88.738-304.317h-53.894v190.033a769.536 769.536 0 0 1 53.894-49.098V161.684zm323.369-53.895c-72.623 0-146.81 23.337-215.58 58.638v-58.638h-53.894v154.14c81.57-56.536 178.068-100.245 269.474-100.245 148.588 0 269.474 120.886 269.474 269.474v235.655L809.58 862.316h61.359l99.166-181.76V431.158c0-178.31-145.057-323.369-323.368-323.369z"/>
</svg>