<svg xmlns="http://www.w3.org/2000/svg" width="100%" height="100%" class="icon" viewBox="0 0 1024 1024">
  <title>rabbit</title>
  <path fill="#FFBDD8" d="M680.96 488.744a1666.668 1666.668 0 0 0-54.434-23.956c-16.006 12.234-33.9 20.265-60.631 20.265h-80.842c-36.81 0-83.645 30.396-104.394 67.772-42.82 77.124-53.41 117.814-11.022 201.701 27.46 54.353 61.52 121.883 61.52 215.58h338.54l68.34-138.86c20.129-40.96 24.252-73.702 24.252-110.35.027-57.398-25.061-159.717-181.329-232.152z"/>
  <path fill="#231F20" d="M862.316 720.896c0 36.621-4.123 69.39-24.253 110.35l-68.365 138.86H485.053V916.21h48.37c-25.546-36.137-48.37-82.702-48.37-134.737 0-59.42 24.171-113.314 63.218-152.36l38.104 38.103a161.091 161.091 0 0 0-47.428 114.257c0 54.784 35.382 104.043 63.515 134.737h133.713l53.49-108.76c15.711-31.852 18.756-55.835 18.756-86.555 0-80.977-63.434-150.097-178.607-195.503-17.543 8.138-38.292 13.554-63.92 13.554h-80.841c-13.96 0-43.925 15.98-57.29 40.017l-47.104-26.166c20.749-37.349 67.584-67.745 104.394-67.745h80.842c37.268 0 57.478-15.441 79.09-36.46-19.617-112.398-95.232-179.12-159.932-179.12h-107.79a21.288 21.288 0 0 0-5.955 2.022 683.763 683.763 0 0 0-69.12-77.474c-35.84-34.223-61.764-58.934-94.909-79.44a42.442 42.442 0 0 0-21.8-6.792 22.824 22.824 0 0 0-17.381 7.195c-10.914 11.426-6.063 28.241 1.428 39.182 21.989 32.121 47.912 56.859 83.752 91.109 20.615 19.672 49.26 43.17 77.393 63.084C281.007 367.4 215.58 484.433 215.58 592.842c0 74.483 24.792 124.066 51.065 176.586 27.89 55.781 56.724 113.476 56.724 200.677h-53.894c0-74.482-24.792-124.065-51.066-176.586-27.89-55.78-56.724-113.475-56.724-200.677 0-90.866 42.227-197.686 93.454-274.486a803.76 803.76 0 0 1-39.047-34.115c-38.238-36.487-65.86-62.841-91.055-99.625-24.441-35.759-22.798-78.686 4.069-106.819 26.3-27.567 70.898-31.043 106.523-9 37.942 23.444 65.563 49.798 103.774 86.258 9.97 9.513 33.038 32.31 56.94 60.55h68.635c-27.621-37.78-60.416-72.73-88.522-99.543-28.834-27.54-54.73-52.116-84.534-74.024L326.306.296c31.232 23.23 57.802 48.533 87.31 76.72 53.84 51.388 94.45 100.594 121.747 146.836 82.837 26.65 150.043 116.87 165.026 230.75l1.725 13.177-9.405 9.405a820.165 820.165 0 0 1-11.803 11.587c156.322 72.408 181.41 174.727 181.41 232.125zm-552.852 33.63c3.934 8.058 7.895 16.088 11.991 24.145 27.433 54.3 55.808 110.457 55.808 191.434h53.895c0-93.696-34.062-161.226-61.52-215.579h-60.174zm597.908 53.895c-3.423 9.405-7.815 19.806-13.77 31.96L829.79 970.105h60.066l52.143-105.957c10.78-21.935 17.516-40.017 21.908-55.727h-56.535zM514.695 390.737c0-34.223-13.231-44.463-29.642-44.463s-29.642 10.24-29.642 44.463c0 34.25 13.23 44.463 29.642 44.463s29.642-10.213 29.642-44.463z"/>
</svg>