<svg xmlns="http://www.w3.org/2000/svg" width="100%" height="100%" class="icon" viewBox="0 0 1024 1024">
  <title>rooster</title>
  <path fill="#FF8787" d="M891.688 506.422c-14.443-51.389-29.372-104.529-29.372-183.054V116.224L538.947 311.97v11.398c0 78.525 14.93 131.665 29.373 183.054 12.611 44.894 24.522 87.282 24.522 140.315 0 101.618-77.932 176.694-168.286 203.991l5.416 11.588h215.58c24.333 0 43.384-.243 58.556-2.13 107.412-13.365 212.103-95.635 212.103-213.45 0-53.032-11.911-95.42-24.523-140.314z"/>
  <path fill="#231F20" d="M673.684 354.358c-16.384 0-29.642-10.213-29.642-44.463 0-34.223 13.231-44.463 29.642-44.463s29.642 10.24 29.642 44.463c0 34.25-13.258 44.463-29.642 44.463zM540.106 970.105l-50.58-107.79h156.052l50.607 107.79h59.554l-51.604-109.918C811.52 846.82 916.21 764.55 916.21 646.737c0-53.033-11.911-95.42-24.523-140.315-14.443-51.389-29.372-104.529-29.372-183.054V107.79C862.316 48.344 813.972 0 754.526 0a107.924 107.924 0 0 0-107.79 106.173 100.89 100.89 0 0 0-24.117-3.315 88.71 88.71 0 0 0-88.603 88.603c0 20.669 5.228 39.72 10.671 53.922l-99.49 59.688 93.75 14.47v57.722c0 14.417-5.901 21.693-33.36 49.152l-11.13 11.13C398.228 326.52 324.985 269.473 215.741 269.473 96.768 269.474 0 366.242 0 485.214v161.523h53.895V485.214A162.008 162.008 0 0 1 215.74 323.368c82.081 0 140.422 36.245 240.64 152.253l-38.616 38.616c-49.96-52.952-94.666-83.08-158.181-83.08a151.983 151.983 0 0 0-151.795 151.795v171.574h53.895V582.952a98.008 98.008 0 0 1 97.9-97.9c46.323 0 79.63 20.912 137.027 86.017l18.971 21.53 128.081-128.08c28.537-28.538 49.18-49.152 49.18-87.256v-97.927l23.309-14.12-13.663-23.04c-.161-.243-14.578-24.9-14.578-50.688 0-19.133 15.575-34.708 34.708-34.708 5.093 0 26.786 3.18 39.559 18.647l26.327 46.026 39.775-24.09-20.373-49.368c-3.152-7.545-7.275-30.478-7.275-40.206 0-29.722 24.171-53.894 53.894-53.894s53.895 24.172 53.895 53.894v215.58c0 85.935 16.68 145.3 31.367 197.631 12.1 43.008 22.528 80.142 22.528 125.737 0 95.286-99.41 161.684-188.632 161.684H464.222l-68.42-145.704c-20.56-43.763-57.693-69.875-99.354-69.875a80.977 80.977 0 0 0-80.87 80.87v188.604h53.896V673.71c0-14.875 12.1-26.974 26.974-26.974 20.534 0 38.966 14.147 50.553 38.858l133.578 284.51h59.527z"/>
</svg>