<svg xmlns="http://www.w3.org/2000/svg" width="100%" height="100%" class="icon" viewBox="0 0 1024 1024">
  <title>tiger</title>
  <path fill="#F7C768" d="M431.158 162.25v-27.513c0-41.553-39.29-80.842-80.842-80.842-28.834 0-57.129 4.662-58.314 4.85l-22.528 3.746v83.887C144.788 223.825 89.223 346.84 66.99 431.158h266.052c240.747 0 415.851 107.79 415.851 269.474-14.848-25.115-43.924-53.895-88.683-53.895-67.989 0-121.264 71.033-121.264 161.684 0 66.803 30.478 119.889 60.713 156.16 12.638 15.171 36.055 37.726 59.015 58.88 5.066.108 9.781.539 15.01.539C892.981 1024 1024 832.189 1024 646.737c0-319.192-344.145-473.924-592.842-484.487z"/>
  <path fill="#231F20" d="M673.684 1024c-114.769 0-188.82-33.334-254.167-62.787-53.626-24.145-99.975-45.002-161.28-45.002-40.448 0-83.591 23.255-103.64 45.163l-39.747-36.433c27.648-30.154 84.318-62.625 143.387-62.625 68.392 0 119.862 21.288 172.92 45.056V673.684c0-35.166-17.542-64.108-30.638-80.815-15.199 9.836-32.068 18.89-50.742 26.947l-21.342-49.475C469.8 509.413 485.053 377.317 485.053 323.368V221.642a597.827 597.827 0 0 0-80.842-6.063h-26.948v-80.842c0-12.1-14.848-26.948-26.947-26.948-9.378 0-18.836.593-26.948 1.348v160.337h-53.894v-57.802c-136.03 102.912-158.45 266.886-161.307 295.882 9.135 9.108 38.993 25.06 71.976 38.67l38.104-59.366 12.45-1.59c90.516-11.614 146.566-93.076 146.566-161.9h53.895c0 88.334-68.797 192.243-180.87 213.343l-48.398 75.398-20.292-7.437C53.895 557.757 53.895 523.318 53.895 512c0-50.041 37.025-254.733 215.579-365.622V62.491l22.528-3.746c1.185-.188 29.48-4.85 58.314-4.85 41.553 0 80.842 39.289 80.842 80.842v27.513C679.855 172.813 1024 327.545 1024 646.737 1024 832.189 892.982 1024 673.684 1024zm-13.473-323.368c-36.514 0-67.369 49.367-67.369 107.79 0 85.746 68.096 145.084 89.465 161.549 91.54-2.534 164.38-45.488 213.828-107.655H700.632V808.42H930.87c8.92-17.273 16.357-35.355 22.285-53.895H713.27l-6.467-17.65c-.512-1.294-14.363-36.244-46.592-36.244zm-175.158 230.48c33.926 14.067 70.52 26.597 114.607 33.47-30.235-36.272-60.713-89.358-60.713-156.16 0-90.652 53.275-161.685 121.264-161.685 44.76 0 73.835 28.78 88.683 53.895h217.007c2.776-17.867 4.204-35.921 4.204-53.895 0-38.94-5.659-74.752-15.926-107.628L827.473 665.79l-38.104-38.104 142.633-142.632a367.94 367.94 0 0 0-57.775-81.597L719.683 557.999l-38.103-38.103 153.573-153.573a537.87 537.87 0 0 0-82.594-56.752L611.894 450.21l-38.104-38.104 128.135-128.135a794.732 794.732 0 0 0-162.978-52.924v92.321c0 50.15-11.102 156.7-95.932 236.329 18.378 23.417 42.038 63.407 42.038 113.987v257.428zM215.579 431.158v-53.895c39.774 0 53.895-29.022 53.895-53.895h53.894c0 53.572-37.025 107.79-107.79 107.79z"/>
</svg>